<svg width="15" height="15" viewBox="0 0 15 15" fill="none" xmlns="http://www.w3.org/2000/svg">
<g id="icon-park-solid:phone-call">
<g id="Mask group">
<mask id="mask0_3575_1544" style="mask-type:luminance" maskUnits="userSpaceOnUse" x="1" y="1" width="13" height="13">
<g id="Group">
<g id="Group_2">
<path id="Vector" d="M13.0539 6.43836C13.1331 5.90694 13.1065 5.36512 12.9758 4.84398C12.7974 4.13185 12.4285 3.48173 11.9086 2.96336C11.3903 2.4434 10.7401 2.07437 10.028 1.89586C9.5068 1.76529 8.965 1.73885 8.43359 1.81805M10.682 6.18711C10.7257 5.89706 10.7006 5.6008 10.6087 5.32223C10.5169 5.04366 10.3609 4.79057 10.1533 4.58336C9.94604 4.37581 9.69293 4.21986 9.41436 4.12807C9.1358 4.03628 8.83956 4.01122 8.54953 4.05492" stroke="white" stroke-linecap="round" stroke-linejoin="round"/>
<path id="Vector_2" d="M4.49059 2.74609C4.60207 2.74615 4.71151 2.77603 4.80756 2.83262C4.90361 2.88922 4.98277 2.97048 5.03684 3.06797L5.80153 4.44484C5.85087 4.5337 5.87779 4.63325 5.87997 4.73486C5.88215 4.83647 5.85952 4.93708 5.81403 5.02797L5.07747 6.50078C5.07747 6.50078 5.2909 7.59828 6.18403 8.49141C7.07747 9.38453 8.17122 9.59453 8.17122 9.59453L9.64372 8.85797C9.73467 8.81248 9.83535 8.78987 9.93702 8.7921C10.0387 8.79433 10.1383 8.82134 10.2272 8.87078L11.6084 9.63859C11.7057 9.69278 11.7868 9.772 11.8432 9.86804C11.8996 9.96408 11.9294 10.0735 11.9293 10.1848V11.7705C11.9293 12.5777 11.1793 13.1611 10.4143 12.9027C8.84309 12.3727 6.40434 11.363 4.85809 9.81734C3.31247 8.27141 2.30309 5.83234 1.77278 4.26109C1.51465 3.49609 2.09778 2.74609 2.90528 2.74609H4.49059Z" fill="white" stroke="white" stroke-linejoin="round"/>
</g>
</g>
</mask>
<g mask="url(#mask0_3575_1544)">
<path id="Vector_3" d="M0 0H15V15H0V0Z" fill="#1B7DBF"/>
</g>
</g>
</g>
</svg>
